#!OML:ASF H:\Terrain\Patient Classification 1\Walking\liu\liu.ASF
:FULLY-SPECIFIED
:DEGREES
144
root 9.04391 16.4149 -11.7352 2.67652 5.08183 2.54832
lowerback -3.28626 -3.65213 -5.04956
upperback 0.499542 -4.72393 2.27961
thorax 2.962 -2.46204 4.89357
lowerneck -20.9599 -2.87038 -11.5732
upperneck 21.2724 -3.17087 11.4515
head 10.6755 -1.02179 5.63826
rclavicle 5.7896e-014 -8.74653e-015
rhumerus -43.5672 4.02161 -82.3133
rradius 23.5566
rwrist -4.97553
rhand -25.4754 -22.6781
rfingers 7.12502
rthumb 1.05246 -52.6553
lclavicle 5.7896e-014 -8.74653e-015
lhumerus -19.3401 -23.3207 93.5431
lradius 32.8372
lwrist 4.97666
lhand -12.988 -27.3202
lfingers 7.12502
lthumb 13.1048 2.24804
rfemur -31.1832 1.991 20.0188
rtibia 33.0107
rfoot -9.3313 -4.44145
rtoes -15.8432
lfemur 20.5542 8.32722 -21.2183
ltibia 8.17647
lfoot -3.21211 -2.44224
ltoes -18.7481
145
root 9.02348 16.4371 -11.5377 3.29137 4.43541 1.53781
lowerback -4.52451 -3.44098 -3.94426
upperback 0.518619 -4.45361 2.49858
thorax 3.57519 -2.3226 4.44772
lowerneck -20.831 -2.87725 -11.683
upperneck 20.9715 -3.2043 11.7135
head 10.5531 -1.01638 5.73738
rclavicle -1.06847e-015 2.3059e-014
rhumerus -43.1028 4.26083 -82.7277
rradius 23.3616
rwrist -5.91917
rhand -26.5079 -21.2499
rfingers 7.12502
rthumb 0.0552071 -51.2296
lclavicle -1.06847e-015 2.3059e-014
lhumerus -19.8088 -22.3923 93.6041
lradius 32.2193
lwrist 4.52193
lhand -12.9528 -27.1232
lfingers 7.12502
lthumb 13.1387 2.44283
rfemur -31.326 2.04775 21.4981
rtibia 33.2182
rfoot -9.29605 -3.34276
rtoes -14.0201
lfemur 17.3631 9.34852 -19.79
ltibia 14.1012
lfoot -3.26225 -2.78413
ltoes -19.4778
146
root 8.99505 16.4469 -11.3279 4.03557 3.11605 0.742997
lowerback -6.01354 -3.0181 -3.1843
upperback 0.485245 -3.90277 2.65974
thorax 4.27754 -2.04473 4.1651
lowerneck -20.6282 -2.88248 -11.6328
upperneck 20.7977 -3.27615 11.8614
head 10.4638 -1.03221 5.76422
rclavicle 5.26034e-014 -2.46493e-014
rhumerus -42.6872 4.11814 -82.837
rradius 22.9098
rwrist -5.65643
rhand -27.6305 -19.9477
rfingers 7.12502
rthumb -1.02908 -49.925
lclavicle 5.26034e-014 -2.46493e-014
lhumerus -20.2545 -21.0099 93.5489
lradius 31.28
lwrist 3.27219
lhand -12.9812 -27.2978
lfingers 7.12502
lthumb 13.1113 2.27008
rfemur -31.6315 2.51439 22.847
rtibia 33.3797
rfoot -9.0829 -2.43596
rtoes -14.581
lfemur 15.0723 11.6977 -18.2311
ltibia 18.4976
lfoot -2.16005 -3.74407
ltoes -19.8424
147
root 8.96974 16.4557 -11.1622 4.0283 3.09314 0.777051
lowerback -6.02601 -3.05666 -3.40024
upperback 0.484565 -3.93937 2.68088
thorax 4.30431 -2.06888 4.30432
lowerneck -20.577 -2.80565 -11.2814
upperneck 20.7859 -3.22638 11.6223
head 10.4324 -1.00973 5.61909
rclavicle -5.2827e-014 4.05521e-014
rhumerus -42.4125 4.68153 -83.3872
rradius 22.8795
rwrist -6.7874
rhand -29.9794 -21.8755
rfingers 7.12502
rthumb -3.29755 -51.8297
lclavicle -5.2827e-014 4.05521e-014
lhumerus -20.6786 -19.2256 93.4693
lradius 30.2114
lwrist 1.79988
lhand -13.0388 -27.8207
lfingers 7.12502
lthumb 13.0558 1.75067
rfemur -31.1114 2.25489 23.0569
rtibia 33.4663
rfoot -9.25209 -2.26823
rtoes -14.5945
lfemur 13.353 12.1311 -17.8265
ltibia 22.4792
lfoot -0.592891 -3.5918
ltoes -18.65
148
root 8.94974 16.4668 -10.9877 3.86799 3.02963 0.486166
lowerback -5.9583 -3.09754 -3.30517
upperback 0.54789 -4.00998 2.83726
thorax 4.34465 -2.10621 4.40842
lowerneck -20.9983 -2.69348 -10.8831
upperneck 21.0528 -3.06379 11.1917
head 10.5722 -0.943498 5.42764
rclavicle 3.88624e-014 1.27222e-014
rhumerus -41.928 5.04851 -83.5014
rradius 22.9168
rwrist -6.64483
rhand -29.8188 -24.0365
rfingers 7.12502
rthumb -3.14252 -53.9931
lclavicle 3.88624e-014 1.27222e-014
lhumerus -21.2986 -17.7975 93.5416
lradius 29.2996
lwrist 0.727619
lhand -13.7904 -28.3882
lfingers 7.12502
lthumb 12.3312 1.22815
rfemur -30.3352 2.0818 23.6051
rtibia 33.5344
rfoot -9.48086 -1.92606
rtoes -12.3876
lfemur 11.9049 12.4359 -17.1628
ltibia 26.1424
lfoot 1.06438 -3.07999
ltoes -16.9501
